<?xml version="1.0" standalone="no"?>
<!DOCTYPE svg PUBLIC "-//W3C//DTD SVG 20010904//EN"
 "http://www.w3.org/TR/2001/REC-SVG-20010904/DTD/svg10.dtd">
<svg version="1.0" xmlns="http://www.w3.org/2000/svg"
 width="58.000000pt" height="51.000000pt" viewBox="0 0 58.000000 51.000000"
 preserveAspectRatio="xMidYMid meet">

<g transform="translate(0.000000,51.000000) scale(0.100000,-0.100000)"
fill="#000000" stroke="none">
<path d="M125 461 c-11 -5 -29 -19 -40 -31 -18 -20 -20 -36 -20 -186 l0 -164
28 -27 27 -28 165 0 165 0 27 28 28 27 0 165 0 165 -28 27 c-27 28 -28 28
-180 30 -83 1 -161 -1 -172 -6z m212 -120 c3 -12 15 -21 32 -23 26 -3 26 -4
26 -83 l0 -80 -110 0 -110 0 0 80 c0 79 0 80 26 83 17 2 29 11 32 23 4 15 14
19 52 19 38 0 48 -4 52 -19z"/>
<path d="M260 330 c0 -5 12 -10 26 -10 14 0 23 4 19 10 -3 6 -15 10 -26 10
-10 0 -19 -4 -19 -10z"/>
<path d="M190 236 c0 -45 3 -54 20 -59 18 -5 20 0 20 54 0 52 -2 59 -20 59
-18 0 -20 -7 -20 -54z"/>
<path d="M260 235 c0 -30 4 -55 9 -55 5 0 16 -3 25 -6 14 -5 16 3 16 55 0 58
-1 61 -25 61 -24 0 -25 -3 -25 -55z"/>
<path d="M340 237 c0 -58 4 -68 26 -60 10 3 14 22 14 59 0 47 -2 54 -20 54
-17 0 -20 -7 -20 -53z"/>
</g>
</svg>
